<mxfile host="app.diagrams.net" modified="2024-06-03T00:51:09.182Z" agent="Mozilla/5.0 (Windows NT 10.0; Win64; x64; rv:127.0) Gecko/20100101 Firefox/127.0" version="24.4.13" etag="uBYd7vosIqWhkeo9CX00" type="github">
  <diagram name="Page-1" id="EvniBDav-hI88hrQvUbT">
    <mxGraphModel>
      <root>
        <mxCell id="0" />
        <mxCell id="1" parent="0" />
      </root>
    </mxGraphModel>
  </diagram>
</mxfile>
